#!OML:ASF F:\twosubjects\two\Thursday\Session 1\justin.ASF
:FULLY-SPECIFIED
:DEGREES
288
root 23.1338 15.9411 -0.504242 5.06531 -30.5089 -4.18034
lowerback 27.3223 2.66505 -8.21674
upperback 8.20106 0.871335 -1.43706
thorax -6.00135 0.314685 2.85809
lowerneck -5.36053 -15.5657 -19.4348
upperneck -17.1081 -18.7031 29.1017
head 1.03698 -9.69532 11.1057
rclavicle 1.82882e-014 1.59028e-015
rhumerus -26.6717 -8.36554 -80.6396
rradius 41.5235
rwrist -5.49002
rhand -16.5249 14.3892
rfingers 7.12502
rthumb 9.69377 -15.3677
lclavicle 1.82882e-014 1.59028e-015
lhumerus -29.1073 -10.2565 86.3905
lradius 68.9096
lwrist -9.08038
lhand -15.0076 29.6419
lfingers 7.12502
lthumb 11.1574 59.3253
rfemur -22.5714 -8.40348 6.3793
rtibia 69.2021
rfoot -23.8502 -14.6861
rtoes -18.9701
lfemur -40.6398 10.3891 -2.36018
ltibia 61.8494
lfoot -23.7642 -10.2654
ltoes -22.0674
289
root 23.0946 15.9372 -0.594476 5.09875 -30.2917 -4.04198
lowerback 27.1714 2.62902 -8.16992
upperback 8.25114 0.860177 -1.41673
thorax -5.87115 0.304439 2.85957
lowerneck -4.99975 -15.4203 -19.78
upperneck -17.705 -18.4484 29.736
head 0.890253 -9.62514 11.4743
rclavicle 6.36111e-014 -1.43125e-014
rhumerus -26.1184 -9.44163 -80.327
rradius 40.7622
rwrist -2.98314
rhand -15.1169 16.8614
rfingers 7.12502
rthumb 11.052 -12.8276
lclavicle 6.36111e-014 -1.43125e-014
lhumerus -28.8483 -10.2945 86.3302
lradius 68.677
lwrist -9.34416
lhand -14.9257 29.5229
lfingers 7.12502
lthumb 11.2364 59.202
rfemur -21.7875 -8.37387 6.32373
rtibia 67.9692
rfoot -26.0536 -13.5501
rtoes -23.2874
lfemur -40.8674 10.0818 -2.19044
ltibia 61.5487
lfoot -23.4175 -10.2808
ltoes -22.2612
290
root 23.0583 15.9335 -0.693475 5.11471 -29.9781 -4.29927
lowerback 27.3722 2.47983 -7.5686
upperback 8.29223 0.81151 -1.40449
thorax -5.91844 0.282711 2.54455
lowerneck -4.43239 -15.2663 -20.068
upperneck -18.3996 -18.2033 30.2973
head 0.666771 -9.57809 11.8375
rclavicle 1.82882e-014 6.36111e-015
rhumerus -26.0174 -9.38536 -80.6396
rradius 41.1351
rwrist -3.40301
rhand -15.6072 16.6937
rfingers 7.12502
rthumb 10.5791 -13.02
lclavicle 1.82882e-014 6.36111e-015
lhumerus -28.7527 -10.4386 86.1829
lradius 68.5745
lwrist -9.58069
lhand -15.0511 29.3853
lfingers 7.12502
lthumb 11.1155 59.0709
rfemur -20.9078 -8.53001 6.68513
rtibia 66.7623
rfoot -27.6695 -13.0647
rtoes -26.6937
lfemur -41.0274 9.81689 -1.63684
ltibia 61.1898
lfoot -22.9784 -10.2307
ltoes -23.28
291
root 23.0237 15.9378 -0.772528 5.25134 -30.0975 -4.85524
lowerback 27.2648 2.28431 -6.36932
upperback 8.35515 0.867491 -1.64823
thorax -5.7977 0.308567 1.57611
lowerneck -4.20529 -15.3044 -19.791
upperneck -18.5013 -18.282 30.3182
head 0.59546 -9.6535 11.8107
rclavicle 3.4191e-014 -1.11319e-014
rhumerus -26.1543 -9.24484 -81.1792
rradius 41.6923
rwrist -3.58273
rhand -15.3654 16.4306
rfingers 7.12502
rthumb 10.8123 -13.2711
lclavicle 3.4191e-014 -1.11319e-014
lhumerus -28.8768 -10.8942 85.8132
lradius 68.534
lwrist -9.62147
lhand -15.4641 29.3817
lfingers 7.12502
lthumb 10.7171 59.0883
rfemur -20.0649 -8.35696 7.2841
rtibia 65.5263
rfoot -28.6991 -13.3943
rtoes -30.688
lfemur -40.8196 9.87079 -0.795389
ltibia 60.8411
lfoot -22.6345 -10.1512
ltoes -23.7762
292
root 22.9776 15.9403 -0.872837 5.3941 -29.9974 -4.54956
lowerback 27.0354 2.334 -6.80988
upperback 8.25701 0.855833 -1.4343
thorax -5.79906 0.305223 2.06881
lowerneck -4.89042 -15.5292 -19.7851
upperneck -17.8696 -18.5911 29.7074
head 0.854679 -9.70534 11.4543
rclavicle -7.95139e-016 1.74931e-014
rhumerus -25.9791 -8.66444 -80.949
rradius 41.8042
rwrist -3.24969
rhand -14.5506 16.5832
rfingers 7.12502
rthumb 11.5982 -13.0759
lclavicle -7.95139e-016 1.74931e-014
lhumerus -29.0006 -10.7585 86.2034
lradius 68.5103
lwrist -9.63471
lhand -15.8923 29.366
lfingers 7.12502
lthumb 10.304 59.0936
rfemur -19.8326 -8.38829 7.23732
rtibia 64.4702
rfoot -29.7017 -13.4434
rtoes -32.6087
lfemur -41.0851 9.55803 -0.722726
ltibia 60.4071
lfoot -22.0763 -10.2784
ltoes -23.242
